<svg id="_レイヤー_1" data-name="レイヤー 1" xmlns="http://www.w3.org/2000/svg" viewBox="0 0 512 512"><defs><linearGradient id="_名称未設定グラデーション_99" data-name="名称未設定グラデーション 99" x1="33.57" y1="33.57" x2="478.43" y2="478.44" gradientUnits="userSpaceOnUse"><stop offset="0" stop-color="#7ebf4d"/><stop offset="1" stop-color="#1e9973"/></linearGradient><style>.cls-1{fill:#fff}</style></defs><path d="M124.29 512h263.44C468.51 512 512 459.19 512 387.73V124.27C512 52.82 468.5 0 387.73 0H124.29C43.5 0 0 52.82 0 124.27v263.46C0 459.19 43.5 512 124.29 512Z" style="fill:url(#_名称未設定グラデーション_99)"/><path class="cls-1" d="M256.38 128.04c-83.24 0-150.96 67.72-150.96 150.96s67.72 150.96 150.96 150.96S407.34 362.24 407.34 279s-67.72-150.96-150.96-150.96Zm0 274c-67.85 0-123.04-55.2-123.04-123.04s55.2-123.04 123.04-123.04S379.42 211.16 379.42 279s-55.2 123.04-123.04 123.04Z"/><path class="cls-1" d="m368.91 291.03-.01-43.16-43.16-.01 11.72 11.72-27.15 27.15-27.81-27.81-19.73 19.74 47.54 47.54 46.89-46.88 11.71 11.71z"/><ellipse class="cls-1" cx="296.24" cy="218.47" rx="14.22" ry="20.28"/><path class="cls-1" d="M219.62 120.17h73.53c1.83 0 3.32-1.49 3.32-3.32V66.17c0-1.32-1.62-1.95-2.51-.97l-15.09 16.48a3.319 3.319 0 0 1-4.9 0l-15.15-16.54a3.319 3.319 0 0 0-4.9 0l-15.15 16.54a3.319 3.319 0 0 1-4.9 0L218.78 65.2c-.89-.97-2.51-.34-2.51.97v50.68c0 1.83 1.49 3.32 3.32 3.32ZM202.45 286.73l-27.14-27.15 11.71-11.72-43.16.01-.01 43.16 11.72-11.71 46.88 46.88L250 278.66l-19.74-19.74-27.81 27.81z"/><ellipse class="cls-1" cx="216.52" cy="218.47" rx="14.22" ry="20.28"/></svg>